<svg data-v-fde0c5aa="" xmlns="http://www.w3.org/2000/svg" viewBox="0 0 300 300" class="iconLeft"><!----><defs data-v-fde0c5aa=""><!----></defs><rect data-v-fde0c5aa="" fill="transparent" x="0" y="0" width="500px" height="500px" class="logo-background-square"></rect><defs data-v-fde0c5aa=""><!----></defs><g data-v-fde0c5aa="" id="87ce0ecd-2025-4ca5-8434-d6b708073616" fill="#851229" transform="matrix(3.7630288367171745,0,0,3.7630288367171745,124.64385218703413,110.88331351974708)"><path d="M4.09 14.14L4.09 14.14Q3.12 14.14 2.39 13.67L2.39 13.67L2.39 13.67Q1.67 13.20 1.27 12.38L1.27 12.38L1.27 12.38Q0.88 11.55 0.88 10.50L0.88 10.50L0.88 10.50Q0.88 9.02 1.65 7.56L1.65 7.56L1.65 7.56Q2.42 6.10 3.68 5.18L3.68 5.18L3.68 5.18Q4.94 4.26 6.30 4.26L6.30 4.26L6.30 4.26Q6.80 4.26 7.13 4.36L7.13 4.36L7.13 4.36Q7.45 4.47 7.76 4.65L7.76 4.65L7.76 4.65Q8.04 4.80 8.16 4.80L8.16 4.80L8.16 4.80Q8.36 4.80 8.71 4.61L8.71 4.61L8.71 4.61Q8.81 4.52 8.87 4.50L8.87 4.50L8.87 4.50Q8.93 4.48 9.03 4.48L9.03 4.48L9.03 4.48Q9.11 4.48 9.13 4.52L9.13 4.52L9.13 4.52Q9.16 4.56 9.13 4.66L9.13 4.66L8.71 6.73L8.71 6.73Q8.68 6.85 8.64 6.89L8.64 6.89L8.64 6.89Q8.60 6.93 8.51 6.93L8.51 6.93L8.51 6.93Q8.46 6.93 8.42 6.89L8.42 6.89L8.42 6.89Q8.39 6.85 8.36 6.73L8.36 6.73L8.36 6.73Q8.16 5.68 7.69 5.15L7.69 5.15L7.69 5.15Q7.22 4.61 6.31 4.61L6.31 4.61L6.31 4.61Q5.08 4.61 4.17 5.66L4.17 5.66L4.17 5.66Q3.26 6.72 2.78 8.30L2.78 8.30L2.78 8.30Q2.30 9.87 2.30 11.35L2.30 11.35L2.30 11.35Q2.30 12.61 2.79 13.22L2.79 13.22L2.79 13.22Q3.29 13.82 4.16 13.82L4.16 13.82L4.16 13.82Q5.07 13.82 5.83 13.34L5.83 13.34L5.83 13.34Q6.59 12.85 6.64 12.80L6.64 12.80L6.64 12.80Q6.68 12.75 7.66 11.58L7.66 11.58L7.66 11.58Q7.77 11.42 7.88 11.49L7.88 11.49L7.88 11.49Q7.97 11.55 7.97 11.62L7.97 11.62L7.97 11.62Q7.97 11.68 7.92 11.75L7.92 11.75L7.92 11.75Q7.92 11.83 7.41 12.45L7.41 12.45L7.41 12.45Q6.89 13.08 6.03 13.61L6.03 13.61L6.03 13.61Q5.18 14.14 4.09 14.14L4.09 14.14ZM13.34 14.15L13.34 14.15Q12.94 14.15 12.73 13.93L12.73 13.93L12.73 13.93Q12.53 13.71 12.53 13.37L12.53 13.37L12.53 13.37Q12.53 13.26 12.55 13.13L12.55 13.13L12.55 13.13Q12.57 13.01 12.57 12.96L12.57 12.96L12.50 12.96L12.50 12.96Q12.25 13.33 11.77 13.73L11.77 13.73L11.77 13.73Q11.30 14.14 10.64 14.14L10.64 14.14L10.64 14.14Q10.09 14.14 9.85 13.80L9.85 13.80L9.85 13.80Q9.60 13.47 9.60 13.08L9.60 13.08L9.60 13.08Q9.60 12.66 9.77 12.09L9.77 12.09L9.77 12.09Q9.93 11.52 10.21 10.72L10.21 10.72L10.21 10.72Q10.44 10.04 10.56 9.64L10.56 9.64L10.56 9.64Q10.67 9.24 10.67 8.99L10.67 8.99L10.67 8.99Q10.67 8.65 10.42 8.65L10.42 8.65L10.42 8.65Q10.04 8.65 9.70 9.23L9.70 9.23L9.70 9.23Q9.35 9.80 9.10 10.42L9.10 10.42L8.89 10.42L8.89 10.42Q9.35 9.25 9.80 8.74L9.80 8.74L9.80 8.74Q10.25 8.23 10.91 8.23L10.91 8.23L10.91 8.23Q11.28 8.23 11.44 8.40L11.44 8.40L11.44 8.40Q11.59 8.57 11.59 8.90L11.59 8.90L11.59 8.90Q11.59 9.23 11.46 9.70L11.46 9.70L11.46 9.70Q11.33 10.16 11.07 10.86L11.07 10.86L11.07 10.86Q10.79 11.72 10.68 12.12L10.68 12.12L10.68 12.12Q10.56 12.53 10.56 12.85L10.56 12.85L10.56 12.85Q10.56 13.17 10.71 13.35L10.71 13.35L10.71 13.35Q10.86 13.52 11.13 13.52L11.13 13.52L11.13 13.52Q11.75 13.52 12.15 12.97L12.15 12.97L12.15 12.97Q12.56 12.42 12.82 11.52L12.82 11.52L12.82 11.52Q13.09 10.63 13.47 8.93L13.47 8.93L13.54 8.62L13.54 8.62Q13.58 8.43 13.76 8.43L13.76 8.43L14.25 8.43L14.25 8.43Q14.36 8.43 14.41 8.49L14.41 8.49L14.41 8.49Q14.46 8.55 14.43 8.65L14.43 8.65L14.29 9.20L14.29 9.20Q13.41 12.68 13.41 13.30L13.41 13.30L13.41 13.30Q13.41 13.54 13.50 13.62L13.50 13.62L13.50 13.62Q13.59 13.71 13.76 13.71L13.76 13.71L13.76 13.71Q14.06 13.71 14.39 13.26L14.39 13.26L14.39 13.26Q14.71 12.81 15.04 12.03L15.04 12.03L15.20 12.07L15.20 12.07Q14.77 13.06 14.36 13.61L14.36 13.61L14.36 13.61Q13.96 14.15 13.34 14.15L13.34 14.15ZM17.11 14.15L17.11 14.15Q16.72 14.15 16.50 13.93L16.50 13.93L16.50 13.93Q16.28 13.71 16.28 13.44L16.28 13.44L16.28 13.44Q16.28 13.12 16.61 11.65L16.61 11.65L16.61 11.65Q16.94 10.18 17.29 8.81L17.29 8.81L16.20 8.81L16.20 8.81Q16.10 8.81 16.13 8.65L16.13 8.65L16.13 8.65Q16.14 8.58 16.18 8.57L16.18 8.57L16.18 8.57Q16.21 8.55 16.26 8.55L16.26 8.55L16.26 8.55Q16.31 8.55 16.34 8.55L16.34 8.55L16.34 8.55Q17.21 8.55 17.68 7.82L17.68 7.82L17.68 7.82Q18.16 7.08 18.34 6.38L18.34 6.38L18.34 6.38Q18.40 6.20 18.55 6.20L18.55 6.20L18.65 6.20L18.65 6.20Q18.70 6.20 18.74 6.26L18.74 6.26L18.74 6.26Q18.77 6.31 18.75 6.38L18.75 6.38L18.27 8.43L19.29 8.43L19.29 8.43Q19.36 8.43 19.36 8.54L19.36 8.54L19.36 8.54Q19.36 8.62 19.32 8.71L19.32 8.71L19.32 8.71Q19.28 8.81 19.22 8.81L19.22 8.81L18.19 8.81L18.19 8.81Q17.91 9.88 17.55 11.49L17.55 11.49L17.55 11.49Q17.19 13.10 17.19 13.37L17.19 13.37L17.19 13.37Q17.19 13.51 17.29 13.61L17.29 13.61L17.29 13.61Q17.39 13.71 17.53 13.71L17.53 13.71L17.53 13.71Q17.82 13.71 18.16 13.25L18.16 13.25L18.16 13.25Q18.49 12.80 18.82 12.03L18.82 12.03L18.97 12.07L18.97 12.07Q18.56 13.03 18.14 13.59L18.14 13.59L18.14 13.59Q17.72 14.15 17.11 14.15L17.11 14.15ZM21.81 14.14L21.81 14.14Q21 14.14 20.43 13.61L20.43 13.61L20.43 13.61Q19.85 13.08 19.85 12.08L19.85 12.08L19.85 12.08Q19.85 11.80 19.95 11.27L19.95 11.27L19.95 11.27Q20.16 10.36 20.68 9.67L20.68 9.67L20.68 9.67Q21.20 8.97 21.84 8.60L21.84 8.60L21.84 8.60Q22.48 8.23 23.06 8.23L23.06 8.23L23.06 8.23Q23.93 8.23 24.31 8.80L24.31 8.80L24.31 8.80Q24.70 9.37 24.70 10.12L24.70 10.12L24.70 10.12Q24.70 10.47 24.64 10.68L24.64 10.68L24.64 10.68Q24.57 11.02 24.32 11.02L24.32 11.02L21.67 11.02L21.67 11.02Q21.32 11.02 21.16 11.07L21.16 11.07L21.16 11.07Q21 11.12 20.96 11.31L20.96 11.31L20.96 11.31Q20.94 11.41 20.87 11.77L20.87 11.77L20.87 11.77Q20.80 12.14 20.80 12.45L20.80 12.45L20.80 12.45Q20.80 13.83 22.08 13.83L22.08 13.83L22.12 13.83L22.12 13.83Q22.54 13.82 22.98 13.57L22.98 13.57L22.98 13.57Q23.42 13.33 23.98 12.67L23.98 12.67L23.98 12.67Q24.04 12.61 24.14 12.61L24.14 12.61L24.14 12.61Q24.21 12.61 24.23 12.66L24.23 12.66L24.23 12.66Q24.25 12.70 24.19 12.78L24.19 12.78L24.19 12.78Q24.08 12.95 23.77 13.27L23.77 13.27L23.77 13.27Q23.45 13.58 22.93 13.86L22.93 13.86L22.93 13.86Q22.41 14.14 21.81 14.14L21.81 14.14ZM21.15 10.67L23.38 10.67L23.38 10.67Q23.58 10.67 23.62 10.63L23.62 10.63L23.62 10.63Q23.66 10.60 23.70 10.42L23.70 10.42L23.70 10.42Q23.80 10.02 23.80 9.53L23.80 9.53L23.80 9.53Q23.80 8.47 23.07 8.47L23.07 8.47L23.07 8.47Q22.54 8.47 22.02 9.02L22.02 9.02L22.02 9.02Q21.49 9.58 21.15 10.67L21.15 10.67ZM26.84 14.14L26.84 14.14Q26.24 14.14 25.75 13.83L25.75 13.83L25.75 13.83Q25.26 13.51 25.26 13.02L25.26 13.02L25.26 13.02Q25.26 12.80 25.37 12.68L25.37 12.68L25.37 12.68Q25.48 12.56 25.66 12.56L25.66 12.56L25.66 12.56Q25.83 12.56 25.95 12.65L25.95 12.65L25.95 12.65Q26.07 12.74 26.07 12.92L26.07 12.92L26.07 12.92Q26.07 13.02 26.00 13.17L26.00 13.17L26.00 13.17Q25.94 13.33 25.94 13.41L25.94 13.41L25.94 13.41Q25.94 13.64 26.21 13.74L26.21 13.74L26.21 13.74Q26.49 13.85 26.84 13.85L26.84 13.85L26.84 13.85Q27.45 13.85 27.96 13.51L27.96 13.51L27.96 13.51Q28.46 13.17 28.46 12.54L28.46 12.54L28.46 12.54Q28.46 12.07 28.17 11.85L28.17 11.85L28.17 11.85Q27.89 11.63 27.29 11.42L27.29 11.42L27.29 11.42Q26.87 11.28 26.61 11.16L26.61 11.16L26.61 11.16Q26.35 11.03 26.17 10.78L26.17 10.78L26.17 10.78Q26.00 10.53 26.00 10.14L26.00 10.14L26.00 10.14Q26.00 9.62 26.29 9.18L26.29 9.18L26.29 9.18Q26.59 8.75 27.05 8.49L27.05 8.49L27.05 8.49Q27.51 8.23 28 8.23L28 8.23L28 8.23Q28.56 8.23 29.01 8.55L29.01 8.55L29.01 8.55Q29.47 8.88 29.47 9.35L29.47 9.35L29.47 9.35Q29.47 9.59 29.36 9.71L29.36 9.71L29.36 9.71Q29.25 9.83 29.06 9.83L29.06 9.83L29.06 9.83Q28.90 9.83 28.78 9.74L28.78 9.74L28.78 9.74Q28.66 9.66 28.66 9.49L28.66 9.49L28.66 9.49Q28.66 9.39 28.72 9.24L28.72 9.24L28.72 9.24Q28.78 9.09 28.78 9.00L28.78 9.00L28.78 9.00Q28.78 8.76 28.53 8.63L28.53 8.63L28.53 8.63Q28.28 8.50 27.93 8.50L27.93 8.50L27.93 8.50Q27.37 8.50 27.02 8.84L27.02 8.84L27.02 8.84Q26.67 9.18 26.67 9.62L26.67 9.62L26.67 9.62Q26.67 10.00 26.93 10.17L26.93 10.17L26.93 10.17Q27.19 10.35 27.72 10.53L27.72 10.53L27.72 10.53Q28.17 10.68 28.45 10.82L28.45 10.82L28.45 10.82Q28.73 10.96 28.92 11.25L28.92 11.25L28.92 11.25Q29.12 11.54 29.12 12.00L29.12 12.00L29.12 12.00Q29.12 12.61 28.77 13.10L28.77 13.10L28.77 13.10Q28.42 13.59 27.89 13.87L27.89 13.87L27.89 13.87Q27.37 14.14 26.84 14.14L26.84 14.14ZM31.53 16.53L31.53 16.53Q30.87 16.53 30.43 16.27L30.43 16.27L30.43 16.27Q29.99 16.00 29.99 15.54L29.99 15.54L29.99 15.54Q29.99 15.27 30.13 15.09L30.13 15.09L30.13 15.09Q30.28 14.91 30.63 14.91L30.63 14.91L30.63 14.91Q30.88 14.91 31.03 15.04L31.03 15.04L31.03 15.04Q31.18 15.16 31.18 15.41L31.18 15.41L31.18 15.41Q31.18 15.55 31.11 15.72L31.11 15.72L31.11 15.72Q31.05 15.88 31.05 15.92L31.05 15.92L31.05 15.92Q31.05 16.28 31.77 16.28L31.77 16.28L31.77 16.28Q32.35 16.28 32.74 15.94L32.74 15.94L32.74 15.94Q33.12 15.60 33.39 14.92L33.39 14.92L33.39 14.92Q33.66 14.24 34.01 12.96L34.01 12.96L33.94 12.96L33.94 12.96Q33.68 13.33 33.21 13.73L33.21 13.73L33.21 13.73Q32.73 14.14 32.07 14.14L32.07 14.14L32.07 14.14Q31.53 14.14 31.28 13.80L31.28 13.80L31.28 13.80Q31.04 13.47 31.04 13.08L31.04 13.08L31.04 13.08Q31.04 12.84 31.14 12.33L31.14 12.33L31.14 12.33Q31.25 11.82 31.35 11.44L31.35 11.44L31.35 11.44Q31.44 11.06 31.49 10.86L31.49 10.86L31.49 10.86Q31.89 9.32 31.89 8.96L31.89 8.96L31.89 8.96Q31.89 8.65 31.67 8.65L31.67 8.65L31.67 8.65Q31.35 8.65 30.98 9.14L30.98 9.14L30.98 9.14Q30.62 9.63 30.35 10.35L30.35 10.35L30.18 10.30L30.18 10.30Q30.60 9.32 31.02 8.78L31.02 8.78L31.02 8.78Q31.44 8.23 32.02 8.23L32.02 8.23L32.02 8.23Q32.35 8.23 32.59 8.41L32.59 8.41L32.59 8.41Q32.82 8.58 32.82 8.96L32.82 8.96L32.82 8.96Q32.82 9.38 32.41 10.84L32.41 10.84L32.41 10.84Q32.20 11.61 32.09 12.08L32.09 12.08L32.09 12.08Q31.99 12.56 31.99 12.85L31.99 12.85L31.99 12.85Q31.99 13.52 32.62 13.52L32.62 13.52L32.62 13.52Q33.22 13.52 33.63 12.92L33.63 12.92L33.63 12.92Q34.05 12.32 34.31 11.40L34.31 11.40L34.31 11.40Q34.58 10.49 34.96 8.83L34.96 8.83L34.96 8.83Q35 8.71 35.06 8.43L35.06 8.43L35.97 8.43L34.96 12.96L34.96 12.96Q34.50 14.98 33.63 15.76L33.63 15.76L33.63 15.76Q32.76 16.53 31.53 16.53L31.53 16.53Z"></path></g><defs data-v-fde0c5aa=""><linearGradient data-v-fde0c5aa="" gradientTransform="rotate(25)" id="139a13ea-6077-4b95-a81f-988281ac9047" x1="0%" y1="0%" x2="100%" y2="0%"><stop data-v-fde0c5aa="" offset="0%" stop-color="#FF7491" stop-opacity="1"></stop><stop data-v-fde0c5aa="" offset="100%" stop-color="#0905E0" stop-opacity="1"></stop></linearGradient></defs><g data-v-fde0c5aa="" id="cc49b15f-b31c-4f2d-bad1-59b19ccb1464" stroke="none" fill="url(#139a13ea-6077-4b95-a81f-988281ac9047)" transform="matrix(1.191544839195933,0,0,1.191544839195933,40,115.37072640634963)"><defs><style></style></defs><path d="M32.344 0c-1.288 0-2.438 1.25-2.438 2.719V12h-1.062c-1.376 0-2.631.828-3.375 2.219-.86 1.607-.845 3.501.031 4.812l6.688 10.438c.791 1.186 2.1 1.906 3.5 1.906 1.255 0 2.41-.57 3.156-1.625l7.031-10.688c.926-1.31.981-3.187.156-4.78C45.296 12.86 44.01 12 42.594 12h-1.688V2.719C40.941.123 38.701 0 38.344 0h-6zm.562 3h5v12h4.688c.322 0 .619.343.781.656.296.573.326 1.269.031 1.688L36.344 28.03a.772.772 0 0 1-.657.344 1.18 1.18 0 0 1-.968-.531L28 17.406c-.268-.4-.197-1.176.125-1.781.165-.307.424-.625.719-.625h4.062V3zM4.47 6.188C1.995 6.188 0 8.23 0 10.75c0 1.55.747 2.99 2.031 3.844.692.458 1.635.285 2.094-.406.458-.69.253-1.636-.438-2.094C3.241 11.798 3 11.292 3 10.75c0-.881.635-1.563 1.469-1.563.798 0 1.468.554 1.468 1.22 0 .118.036.257.063.374l9.188 37.782.374 2.187a1.53 1.53 0 0 0 1.5 1.25h3.063c.554 3.458 3.544 6.125 7.156 6.125 3.612 0 6.603-2.667 7.157-6.125h8.78c.555 3.458 3.545 6.125 7.157 6.125 3.613 0 6.604-2.666 7.156-6.125h3.438c.829 0 1.937-.671 1.937-1.5v-11c0-.829-1.108-1.5-1.937-1.5H54l8.563-17.844c.222-.465.212-1.031-.063-1.468A1.508 1.508 0 0 0 61.219 18h-12.75a1.5 1.5 0 1 0 0 3h10.375l-8.157 17H16.313l-4.157-17h9.313a1.5 1.5 0 1 0 0-3H10.812l-1.874-7.781c-.112-2.238-2.074-4.031-4.47-4.031zM16.906 41h43v8H57.47c-.034 0-.06-.002-.094 0-.829-3.098-3.644-5.406-7-5.406-3.354 0-6.17 2.31-7 5.406h-9.094c-.83-3.096-3.645-5.406-7-5.406-3.354 0-6.17 2.31-7 5.406h-1.906l-.188-.75-1.28-7.25zm10.375 5.594c2.35 0 4.25 1.931 4.25 4.281 0 2.349-1.9 4.25-4.25 4.25a4.248 4.248 0 0 1-4.25-4.25c0-2.35 1.901-4.281 4.25-4.281zm23.094 0c2.35 0 4.25 1.931 4.25 4.281 0 2.349-1.9 4.25-4.25 4.25s-4.281-1.901-4.281-4.25c0-2.35 1.931-4.281 4.281-4.281z"></path></g><!----></svg>